<svg id="visual" viewBox="0 0 900 450" width="900" height="450" xmlns="http://www.w3.org/2000/svg" xmlns:xlink="http://www.w3.org/1999/xlink" version="1.1"><rect x="0" y="0" width="900" height="450" fill="#ffffff"></rect><defs><linearGradient id="grad1_0" x1="50%" y1="100%" x2="100%" y2="0%"><stop offset="10%" stop-color="#ffffff" stop-opacity="1"></stop><stop offset="90%" stop-color="#ffffff" stop-opacity="1"></stop></linearGradient></defs><defs><linearGradient id="grad2_0" x1="0%" y1="100%" x2="50%" y2="0%"><stop offset="10%" stop-color="#ffffff" stop-opacity="1"></stop><stop offset="90%" stop-color="#ffffff" stop-opacity="1"></stop></linearGradient></defs><g transform="translate(900, 450)"><path d="M-180 0C-179 -15.5 -178.1 -30.9 -173.9 -46.6C-169.7 -62.2 -162.3 -78.1 -147.2 -85C-132.2 -91.9 -109.6 -89.9 -97.6 -97.6C-85.6 -105.2 -84.3 -122.6 -76.5 -132.5C-68.7 -142.4 -54.5 -145 -40.6 -151.7C-26.8 -158.3 -13.4 -169.2 0 -180L0 0Z" fill="#8c19ff"></path></g><g transform="translate(0, 0)"><path d="M180 0C168.5 13.9 157 27.8 149.7 40.1C142.5 52.4 139.4 63.1 138.6 80C137.7 96.9 139 119.9 127.3 127.3C115.5 134.7 90.8 126.4 75.5 130.8C60.2 135.1 54.5 152 43.5 162.3C32.5 172.6 16.2 176.3 0 180L0 0Z" fill="#8c19ff"></path></g></svg>