<svg id="visual" viewBox="0 0 1920 1080" width="1920" height="1080" xmlns="http://www.w3.org/2000/svg" xmlns:xlink="http://www.w3.org/1999/xlink" version="1.1"><rect x="0" y="0" width="1920" height="1080" fill="#FFFFFF"></rect><defs><linearGradient id="grad1_0" x1="43.8%" y1="100%" x2="100%" y2="0%"><stop offset="14.444444444444446%" stop-color="#ffffff" stop-opacity="1"></stop><stop offset="85.55555555555554%" stop-color="#ffffff" stop-opacity="1"></stop></linearGradient></defs><defs><linearGradient id="grad2_0" x1="0%" y1="100%" x2="56.3%" y2="0%"><stop offset="14.444444444444446%" stop-color="#ffffff" stop-opacity="1"></stop><stop offset="85.55555555555554%" stop-color="#ffffff" stop-opacity="1"></stop></linearGradient></defs><g transform="translate(1920, 1080)"><path d="M-270 0C-269 -23.9 -268 -47.8 -259.8 -69.6C-251.6 -91.4 -236.2 -111 -218.2 -126C-200.3 -141 -179.9 -151.3 -163.3 -163.3C-146.8 -175.4 -134.2 -189.3 -120 -207.8C-105.8 -226.4 -90.1 -249.7 -69.9 -260.8C-49.6 -271.9 -24.8 -271 0 -270L0 0Z" fill="#715DF2"></path></g><g transform="translate(0, 0)"><path d="M270 0C270 24.6 269.9 49.1 260.8 69.9C251.7 90.6 233.4 107.6 220.8 127.5C208.2 147.4 201.3 170.3 186 186C170.7 201.6 147 210 125.5 217.4C104 224.7 84.7 231 64.2 239.5C43.6 248.1 21.8 259.1 0 270L0 0Z" fill="#715DF2"></path></g></svg>